<?xml version="1.0"?>
<svg xmlns="http://www.w3.org/2000/svg" xmlns:xlink="http://www.w3.org/1999/xlink" width="512px" height="512px" viewBox="0 0 50 53" version="1.1" class=""><g><title class="active-path" style="">031 - Wheelchair ramp</title><desc class="active-path">Created with Sketch.</desc><defs class="active-path"/><g id="Page-1" stroke="none" stroke-width="1" fill="none" fill-rule="evenodd"><g id="031---Wheelchair-ramp" fill="#000000" fill-rule="nonzero"><circle id="Oval" cx="15.5" cy="2.5" r="2.5" data-original="#000000" class="active-path" fill="#99CC00"/><path d="M15.53,27 L25.63,27 C25.95202,27.0001521 26.2542624,27.1553677 26.442,27.417 L27.58,29 L33.251,36.6 C33.5390029,36.9832171 33.9906246,37.2084723 34.47,37.208 L35.461,36.832 C36.0727236,36.3099324 36.1762466,35.4035606 35.698,34.757 L28.118,24.616 C27.8292245,24.2332182 27.3794582,24.0057502 26.9,24 L18,24 C17.4477153,24 17,23.5522847 17,23 L17,18 C17,17.4477153 17.4477153,17 18,17 L23.47,17 C23.8689948,17.0121149 24.2560661,16.863086 24.5439158,16.5865246 C24.8317654,16.3099631 24.9961518,15.9291602 25,15.53 C25.0002793,15.4921006 24.9969307,15.4542614 24.99,15.417 C24.9232044,14.6240228 24.2657083,14.0110807 23.47,14 L18,14 C17.4477153,14 17,13.5522847 17,13 L17,10.53 C17.0121149,10.1310052 16.863086,9.7439339 16.5865246,9.45608424 C16.3099631,9.16823459 15.9291602,9.00384823 15.53,9 C14.6852329,9.00055159 14.0005516,9.68523292 14,10.53 L14,25.47 C14.0005516,26.3147671 14.6852329,26.9994484 15.53,27 Z" id="Shape" data-original="#000000" class="active-path" fill="#99CC00"/><path d="M15.47,43.13 C21.3210447,43.1409563 26.6708948,39.8290889 29.27,34.587 L27.175,31.768 C25.1733238,37.469943 19.3528217,40.8985709 13.3953348,39.8850566 C7.43784787,38.8715422 3.07855978,33.7110827 3.075,27.668 C3.11242998,22.1717343 6.73381127,17.3440374 12,15.77 L12,12.6 C4.33594237,14.3640651 -0.782973275,21.6000009 0.105172549,29.4141484 C0.993318373,37.228296 7.60554171,43.1308858 15.47,43.13 Z" id="Shape" data-original="#000000" class="active-path" fill="#99CC00"/><path d="M48.645,33.963 L3.557,51.063 C3.1026306,51.2323724 2.83525335,51.7033203 2.9226685,52.1802869 C3.01008364,52.6572535 3.42709705,53.002771 3.912,53 L47,53 C48.6568542,53 50,51.6568542 50,50 L50,34.9 C50.0007025,34.570911 49.8394459,34.2625431 49.5687703,34.0753674 C49.2980946,33.8881917 48.9526546,33.8461724 48.645,33.963 Z" id="Shape" data-original="#000000" class="active-path" fill="#99CC00"/></g></g></g> </svg>
