<?xml version="1.0" encoding="utf-8"?>
<!-- Generator: Adobe Illustrator 22.0.1, SVG Export Plug-In . SVG Version: 6.00 Build 0)  -->
<svg version="1.1" id="Capa_1" xmlns="http://www.w3.org/2000/svg" xmlns:xlink="http://www.w3.org/1999/xlink" x="0px" y="0px"
	 viewBox="0 0 180 180" style="enable-background:new 0 0 180 180;" xml:space="preserve">
<style type="text/css">
	.st0{fill:#C1D125;stroke:#C1D125;stroke-width:4.9005;stroke-miterlimit:10;}
	.st1{fill:#C2D500;}
	.st2{fill:#1226AA;}
</style>
<g>
	<path class="st0" d="M63.9,146.2c-33-12.3-49.9-49-37.6-82c12.3-32.9,49-49.9,82-37.6s49.9,49,37.7,82c-0.7,1.9-2.8,2.8-4.7,2.2
		c-1.9-0.7-2.8-2.7-2.2-4.7c10.8-29.2-4.1-61.8-33.3-72.6S44,37.5,33.2,66.7c-10.9,29.2,4.1,61.8,33.3,72.6
		c18.7,7,39.9,3.4,55.4-9.2c1.6-1.3,3.8-1.1,5.1,0.5c1.3,1.6,1.1,3.8-0.5,5.1C109,150,85.1,154,63.9,146.2L63.9,146.2z"/>
	<path class="st0" d="M141.3,110.7c-0.6-0.2-1.2-0.6-1.6-1.1L122.9,89c-1.3-1.6-1.1-3.8,0.5-5.1c1.6-1.3,3.8-1.1,5.1,0.5l14.6,17.9
		l18.4-12.7c1.7-1.2,3.9-0.7,5.1,0.9c1.2,1.7,0.7,3.9-0.9,5.1l-21.2,14.7C143.6,111,142.3,111.1,141.3,110.7L141.3,110.7z"/>
</g>
<path id="XMLID_304_" class="st1" d="M117.5,110H97.2L82.2,96L66.3,110H48.6l24.2-19.3h24L117.5,110z"/>
<path id="XMLID_302_" class="st2" d="M52.1,64h20.2l15.1,13.9L103.4,64h17.7L96.8,83.3h-24L52.1,64z"/>
</svg>
