<?xml version="1.0"?>
<svg xmlns="http://www.w3.org/2000/svg" height="512px" viewBox="-40 0 512 512.22599" width="512px"><g><path d="m197.726562 0h17.964844c4.960938 0 8.984375 4.023438 8.984375 8.984375v8.980469c0 4.960937-4.023437 8.984375-8.984375 8.984375h-17.964844c-4.960937 0-8.980468-4.023438-8.980468-8.984375v-8.980469c0-4.960937 4.019531-8.984375 8.980468-8.984375zm0 0" data-original="#000000" class="active-path" data-old_color="#000000" fill="#99CC00"/><path d="m95.6875 393.160156c.007812-.09375.082031-.167968.179688-.175781.089843-.089844.179687-.089844.179687-.179687.070313-.164063.199219-.289063.359375-.359376.121094-.203124.273438-.382812.449219-.539062.230469-.285156.4375-.585938.628906-.898438.167969-.226562.320313-.46875.449219-.71875.101562-.234374.191406-.476562.269531-.71875.171875-.277343.292969-.582031.359375-.898437.21875-.792969.339844-1.605469.359375-2.425781-.015625-.726563-.105469-1.449219-.269531-2.15625-.109375-.460938-.261719-.914063-.449219-1.347656-.207031-.46875-.445313-.917969-.71875-1.347657-.753906-1.171875-1.769531-2.15625-2.964844-2.875l-1.078125-.539062c-.164062-.097657-.347656-.160157-.539062-.179688-.3125-.15625-.644532-.277343-.988282-.359375-2.699218-.597656-5.527343.097656-7.636718 1.886719-.542969.410156-1.027344.894531-1.4375 1.4375-.382813.457031-.6875.972656-.898438 1.527344-.671875 1.207031-1.011718 2.570312-.984375 3.953125 0 4.960937 4.019531 8.980468 8.980469 8.980468 2.097656-.011718 4.125-.738281 5.75-2.066406zm0 0" data-original="#000000" class="active-path" data-old_color="#000000" fill="#99CC00"/><path d="m179.761719 269.472656c0 19.84375-16.085938 35.929688-35.929688 35.929688s-35.929687-16.085938-35.929687-35.929688 16.085937-35.929687 35.929687-35.929687 35.929688 16.085937 35.929688 35.929687zm0 0" data-original="#000000" class="active-path" data-old_color="#000000" fill="#99CC00"/><path d="m189.734375 390.289062c.089844.179688.179687.269532.179687.359376l.539063.808593c.300781.300781.570313.632813.804687.988281.011719.09375.085938.167969.179688.179688.089844 0 .179688.089844.269531.179688.089844.089843.269531.179687.359375.355468 1.570313 1.363282 3.585938 2.097656 5.660156 2.066406 4.859376.003907 8.835938-3.855468 8.984376-8.710937v-.269531c-.011719-.664063-.074219-1.324219-.179688-1.976563-.089844-.089843-.089844-.089843-.089844-.179687-.164062-.628906-.402344-1.230469-.71875-1.796875-.152344-.464844-.394531-.890625-.71875-1.257813-.089844-.089844-.089844-.179687-.179687-.269531-.410157-.542969-.894531-1.027344-1.4375-1.4375-2.109375-1.789063-4.9375-2.484375-7.636719-1.886719-.339844.082032-.671875.203125-.988281.359375-.191407.019531-.375.082031-.539063.179688-.097656-.011719-.195312.023437-.269531.089843-.445313.1875-.871094.429688-1.257813.71875-1.421874.992188-2.542968 2.359376-3.230468 3.953126-.191406.433593-.34375.886718-.449219 1.347656v.089844c-.070313.070312-.101563.171874-.089844.269531-.101562.59375-.160156 1.195312-.179687 1.796875v.089844c-.015625 1.117187.230468 2.226562.71875 3.234374.007812.261719.101562.515626.269531.71875zm0 0" data-original="#000000" class="active-path" data-old_color="#000000" fill="#99CC00"/><path d="m239.136719 393.339844c.082031-.070313.171875-.128906.269531-.179688 0-.085937.089844-.085937.179688-.175781l.539062-.539063c.121094-.203124.273438-.382812.449219-.539062.347656-.382812.648437-.804688.898437-1.257812 0-.089844.089844-.179688.179688-.359376.164062-.203124.261718-.457031.269531-.71875.15625-.285156.277344-.585937.359375-.898437.21875-.699219.339844-1.425781.359375-2.15625v-.269531c-.011719-.726563-.101563-1.449219-.269531-2.15625-.109375-.460938-.261719-.914063-.449219-1.347656-.207031-.46875-.445313-.917969-.71875-1.347657-.753906-1.171875-1.769531-2.15625-2.964844-2.875-.320312-.25-.6875-.433593-1.078125-.539062-.164062-.097657-.347656-.160157-.539062-.179688-.3125-.15625-.644532-.277343-.988282-.359375-2.699218-.597656-5.523437.097656-7.636718 1.886719-.542969.410156-1.027344.894531-1.433594 1.4375-.386719.457031-.6875.972656-.898438 1.527344-.675781 1.207031-1.015624 2.570312-.988281 3.953125v.449218c.171875 3.335938 2.179688 6.304688 5.21875 7.699219 3.035157 1.394531 6.597657.992188 9.242188-1.054687zm0 0" data-original="#000000" class="active-path" data-old_color="#000000" fill="#99CC00"/><path d="m323.480469 269.472656c0 19.84375-16.085938 35.929688-35.929688 35.929688s-35.929687-16.085938-35.929687-35.929688 16.085937-35.929687 35.929687-35.929687 35.929688 16.085937 35.929688 35.929687zm0 0" data-original="#000000" class="active-path" data-old_color="#000000" fill="#99CC00"/><path d="m333.183594 389.570312c.007812.261719.101562.515626.269531.71875.089844.179688.179687.269532.179687.359376l.539063.808593c.300781.300781.570313.632813.808594.988281.160156.070313.289062.195313.359375.359376.058594.058593.117187.117187.179687.179687 0 .089844.089844.089844.179688.175781h.089843l.179688.179688c1.558594 1.230468 3.492188 1.898437 5.476562 1.886718 4.960938 0 8.984376-4.019531 8.984376-8.980468-.011719-.664063-.070313-1.324219-.179688-1.976563-.082031-.3125-.203125-.617187-.359375-.898437-.070313-.386719-.226563-.753906-.449219-1.078125-.152344-.464844-.394531-.890625-.71875-1.257813-.089844-.089844-.089844-.179687-.179687-.269531-.410157-.542969-.894531-1.027344-1.4375-1.4375-2.109375-1.789063-4.933594-2.484375-7.636719-1.886719-.535156.085938-1.054688.269532-1.527344.539063h-.089844c-.066406.011719-.128906.042969-.179687.089843-.445313.1875-.867187.429688-1.253906.71875-1.425781.992188-2.546875 2.359376-3.234375 3.953126-.191406.433593-.339844.886718-.449219 1.347656-.167969.707031-.257813 1.429687-.269531 2.15625v.089844c.015625.761718.136718 1.515624.359375 2.246093.039062.351563.160156.691407.359375.988281zm0 0" data-original="#000000" class="active-path" data-old_color="#000000" fill="#99CC00"/><path d="m170.78125 170.667969h-80.84375c-49.609375 0-89.824219 40.214843-89.824219 89.824219v125.753906c.035157 6.449218 3.488281 12.398437 9.070313 15.628906 1.230468-18.890625 16.910156-33.585938 35.839844-33.59375h17.964843v-17.964844c-.035156-23.269531 17.777344-42.679687 40.960938-44.644531-19.570313-21.53125-18.515625-54.710937 2.382812-74.957031 20.902344-20.25 54.097657-20.25 75 0 20.898438 20.246094 21.953125 53.425781 2.382813 74.957031 12.691406 1.082031 24.320312 7.515625 31.976562 17.695313 7.65625-10.179688 19.285156-16.613282 31.976563-17.695313-19.570313-21.53125-18.515625-54.710937 2.382812-74.957031 20.902344-20.25 54.101563-20.25 75 0 20.898438 20.246094 21.953125 53.425781 2.382813 74.957031 23.1875 1.964844 40.996094 21.375 40.960937 44.644531v17.964844h17.964844c18.929687.007812 34.609375 14.703125 35.839844 33.59375 5.585937-3.230469 9.039062-9.179688 9.070312-15.628906v-125.753906c0-49.609376-40.214843-89.824219-89.824219-89.824219h-98.804687c-.027344-16.445313-11.234375-30.761719-27.191406-34.738281.109375-.390626.191406-.789063.242187-1.191407v-35.929687h8.984375c4.960938 0 8.980469-4.023438 8.980469-8.984375v-35.929688c0-4.960937-4.019531-8.980469-8.980469-8.980469h-35.929687c-4.960938 0-8.984375 4.019532-8.984375 8.980469v35.929688c0 4.960937 4.023437 8.984375 8.984375 8.984375h8.980468v35.929687c.054688.402344.132813.800781.242188 1.191407-15.953125 3.976562-27.160156 18.292968-27.1875 34.738281zm0 0" data-original="#000000" class="active-path" data-old_color="#000000" fill="#99CC00"/><path d="m62.988281 386.246094h-17.964843c-9.90625.027344-17.933594 8.054687-17.964844 17.964844.074218 9.890624 8.074218 17.890624 17.964844 17.964843h37.097656c.820312-3.289062 2.121094-6.4375 3.863281-9.34375-13.183594-1.953125-22.960937-13.257812-22.996094-26.585937zm0 0" data-original="#000000" class="active-path" data-old_color="#000000" fill="#99CC00"/><path d="m188.746094 360.914062.089844-.089843h.089843c.164063-.097657.347657-.160157.539063-.179688.898437-.363281 1.828125-.632812 2.78125-.808593 2.183594-.457032 4.421875-.609376 6.648437-.449219.511719-.015625 1.023438.015625 1.527344.089843.875.070313 1.746094.191407 2.605469.359376.917968.15625 1.820312.398437 2.695312.71875.210938.050781.421875.109374.628906.179687.070313.070313.167969.101563.269532.089844 0 .050781.039062.089843.089844.089843v-10.597656c-.046876-14.863281-12.085938-26.902344-26.949219-26.949218h-71.859375c-14.863282.046874-26.902344 12.085937-26.945313 26.949218v10.507813l.984375-.269531c.90625-.320313 1.839844-.5625 2.785156-.71875.832032-.167969 1.671876-.289063 2.515626-.359376.445312-.074218.898437-.101562 1.347656-.089843 2.285156-.160157 4.582031-.007813 6.828125.449219.953125.175781 1.886719.445312 2.785156.808593.109375.0625.230469.09375.359375.089844.066406.011719.128906.042969.179688.089844h.089843l.089844.089843v-1.617187c0-4.960937 4.019531-8.980469 8.980469-8.980469 4.960937 0 8.984375 4.019532 8.984375 8.980469v27.039063c-.015625.871093-.074219 1.738281-.179688 2.605468-.03125.90625-.152343 1.808594-.359375 2.695313-.15625.886719-.398437 1.761719-.71875 2.601562-.089844.359375-.269531.71875-.359375 1.078125.535157-.074218 1.074219-.101562 1.617188-.089844 10.324219-.003906 20.144531 4.449219 26.945312 12.21875 6.800781-7.769531 16.625-12.222656 26.949219-12.21875.539062-.011718 1.078125.015626 1.617188.089844 0-.089844-.089844-.179687-.089844-.269531l-.269532-.808594c-.324218-.839843-.566406-1.714843-.71875-2.601562-.179687-.898438-.269531-1.796875-.359374-2.695313-.109376-.867187-.167969-1.734375-.179688-2.605468v-27.039063c0-4.960937 4.019531-8.980469 8.980469-8.980469 4.960937 0 8.984375 4.019532 8.984375 8.980469zm0 0" data-original="#000000" class="active-path" data-old_color="#000000" fill="#99CC00"/><path d="m116.886719 512c9.671875-.015625 17.601562-7.671875 17.964843-17.335938v-63.507812c0-9.921875-8.042968-17.964844-17.964843-17.964844s-17.964844 8.042969-17.964844 17.964844v62.878906c.027344 9.910156 8.054687 17.933594 17.964844 17.964844zm0 0" data-original="#000000" class="active-path" data-old_color="#000000" fill="#99CC00"/><path d="m170.78125 413.191406c-9.570312.019532-17.457031 7.511719-17.964844 17.066406v63.777344c0 9.921875 8.042969 17.964844 17.964844 17.964844s17.964844-8.042969 17.964844-17.964844v-62.878906c-.03125-9.90625-8.058594-17.933594-17.964844-17.964844zm0 0" data-original="#000000" class="active-path" data-old_color="#000000" fill="#99CC00"/><path d="m332.464844 360.914062.089844-.089843h.089843c.164063-.097657.347657-.160157.539063-.179688.898437-.363281 1.832031-.632812 2.785156-.808593 2.183594-.457032 4.417969-.609376 6.644531-.449219.511719-.015625 1.023438.015625 1.527344.089843.875.070313 1.746094.191407 2.605469.359376.917968.15625 1.820312.398437 2.695312.71875l.988282.269531v-10.507813c-.046876-14.863281-12.085938-26.902344-26.949219-26.949218h-71.859375c-14.863282.046874-26.902344 12.085937-26.945313 26.949218v10.597656c.046875 0 .089844-.039062.089844-.089843.089844 0 .179687-.089844.269531-.089844s.359375-.089844.539063-.179687c.933593-.324219 1.894531-.5625 2.871093-.71875.773438-.167969 1.550782-.289063 2.335938-.359376h.179688c.445312-.074218.898437-.101562 1.347656-.089843 2.285156-.160157 4.582031-.007813 6.828125.449219.953125.175781 1.886719.445312 2.785156.808593.191406.019531.375.082031.539063.179688h.089843l.089844.089843v-1.617187c0-4.960937 4.019531-8.980469 8.980469-8.980469 4.960937 0 8.984375 4.019532 8.984375 8.980469v27.039063c-.011719.871093-.074219 1.738281-.179688 2.605468-.089843.898438-.179687 1.796875-.359375 2.695313-.15625.886719-.398437 1.761719-.71875 2.601562-.089844.359375-.269531.71875-.359375 1.078125.535157-.074218 1.074219-.101562 1.617188-.089844 10.324219-.003906 20.144531 4.449219 26.945312 12.21875 6.800781-7.769531 16.625-12.222656 26.949219-12.21875.539062-.011718 1.082031.015626 1.617188.089844 0-.089844-.089844-.179687-.089844-.269531l-.269532-.808594c-.324218-.839843-.5625-1.714843-.71875-2.601562-.175781-.890625-.296874-1.792969-.359374-2.695313-.109376-.867187-.167969-1.734375-.179688-2.605468v-27.039063c0-4.960937 4.019531-8.980469 8.980469-8.980469 4.960937 0 8.984375 4.019532 8.984375 8.980469zm0 0" data-original="#000000" class="active-path" data-old_color="#000000" fill="#99CC00"/><path d="m225.84375 422.175781c.800781-3.265625 2.101562-6.386719 3.859375-9.253906-5.226563-.769531-10.105469-3.082031-14.011719-6.644531-3.902344 3.5625-8.785156 5.875-14.011718 6.644531 1.757812 2.867187 3.0625 5.988281 3.863281 9.253906zm0 0" data-original="#000000" class="active-path" data-old_color="#000000" fill="#99CC00"/><path d="m260.605469 512c9.671875-.015625 17.601562-7.671875 17.964843-17.335938v-63.507812c0-9.921875-8.042968-17.964844-17.964843-17.964844s-17.964844 8.042969-17.964844 17.964844v62.878906c.027344 9.910156 8.054687 17.933594 17.964844 17.964844zm0 0" data-original="#000000" class="active-path" data-old_color="#000000" fill="#99CC00"/><path d="m314.5 413.191406c-9.671875.019532-17.605469 7.671875-17.964844 17.335938v63.957031c.121094 9.921875 8.265625 17.863281 18.1875 17.738281 9.921875-.121094 17.867188-8.265625 17.742188-18.1875v-62.878906c-.03125-9.90625-8.054688-17.933594-17.964844-17.964844zm0 0" data-original="#000000" class="active-path" data-old_color="#000000" fill="#99CC00"/><path d="m386.359375 422.175781c9.890625-.074219 17.890625-8.074219 17.964844-17.964843-.03125-9.910157-8.054688-17.9375-17.964844-17.964844h-17.964844c.019531.332031-.011719.664062-.089843.988281-.175782 6.292969-2.597657 12.3125-6.828126 16.976563-4.1875 4.664062-9.875 7.714843-16.078124 8.621093 1.742187 2.90625 3.046874 6.054688 3.863281 9.34375zm0 0" data-original="#000000" class="active-path" data-old_color="#000000" fill="#99CC00"/></g> </svg>
