<?xml version="1.0"?>
<svg xmlns="http://www.w3.org/2000/svg" height="512px" viewBox="0 -61 512 512" width="512px" class=""><g><path d="m220.199219 379.71875c-2.976563 3.839844-6.617188 6.9375-10.042969 10.28125h301.84375v-240h-107.332031zm0 0" data-original="#000000" class="active-path" data-old_color="#000000" fill="#99CC00"/><path d="m121 30c0 16.570312-13.429688 30-30 30s-30-13.429688-30-30 13.429688-30 30-30 30 13.429688 30 30zm0 0" data-original="#000000" class="active-path" data-old_color="#000000" fill="#99CC00"/><path d="m51 210h56.085938l30.425781-39.066406 13.488281-80.933594h-120zm0 0" data-original="#000000" class="active-path" data-old_color="#000000" fill="#99CC00"/><path d="m467 0h-121.675781c-23.289063 0-44.867188 10.53125-59.179688 28.914062l-164.398437 211.085938h-76.746094c-24.8125 0-45 20.1875-45 45v105h137.523438c23.363281 0 44.96875-10.589844 59.28125-29.0625l193.476562-240.9375h121.71875v-75c0-24.8125-20.1875-45-45-45zm-250.039062 264.214844-23.671876-18.429688 93.472657-120 23.671875 18.429688zm0 0" data-original="#000000" class="active-path" data-old_color="#000000" fill="#99CC00"/></g> </svg>
