<?xml version="1.0" encoding="iso-8859-1"?>
<!-- Generator: Adobe Illustrator 20.1.0, SVG Export Plug-In . SVG Version: 6.00 Build 0)  -->
<svg version="1.1" id="Capa_1" xmlns="http://www.w3.org/2000/svg" xmlns:xlink="http://www.w3.org/1999/xlink" x="0px" y="0px"
	 viewBox="0 0 500 206" style="enable-background:new 0 0 500 206;" xml:space="preserve">
<g id="XMLID_25_">
	<path id="XMLID_147_" style="fill:#C4D600;" d="M205.81,35.806h-10.074l-1.4,3.723h-9.06l10.793-22.553h9.679l10.791,22.553h-9.293
		L205.81,35.806z M203.969,30.93l-3.17-8.108l-3.137,8.108H203.969z"/>
	<path id="XMLID_145_" style="fill:#C4D600;" d="M220.148,32.068l8.443-0.415c0.182,1.077,0.555,1.898,1.117,2.461
		c0.914,0.913,2.22,1.369,3.918,1.369c1.267,0,2.243-0.233,2.928-0.7c0.686-0.467,1.029-1.008,1.029-1.623
		c0-0.584-0.327-1.107-0.98-1.569s-2.168-0.897-4.544-1.308c-3.892-0.687-6.667-1.6-8.325-2.738
		c-1.672-1.138-2.508-2.59-2.508-4.354c0-1.159,0.428-2.254,1.283-3.284c0.855-1.031,2.142-1.841,3.859-2.431
		c1.717-0.59,4.071-0.885,7.062-0.885c3.67,0,6.467,0.536,8.394,1.608c1.926,1.072,3.072,2.777,3.438,5.116l-8.365,0.385
		c-0.222-1.016-0.689-1.754-1.4-2.215c-0.712-0.462-1.695-0.692-2.949-0.692c-1.031,0-1.809,0.172-2.331,0.515
		c-0.522,0.344-0.783,0.761-0.783,1.254c0,0.359,0.215,0.682,0.646,0.969c0.418,0.298,1.41,0.575,2.977,0.831
		c3.879,0.657,6.657,1.32,8.335,1.992c1.678,0.672,2.899,1.506,3.663,2.5c0.764,0.995,1.146,2.108,1.146,3.339
		c0,1.446-0.509,2.779-1.528,4c-1.018,1.221-2.442,2.146-4.271,2.777c-1.828,0.631-4.133,0.946-6.914,0.946
		c-4.884,0-8.267-0.738-10.147-2.215C221.46,36.222,220.395,34.345,220.148,32.068z"/>
	<path id="XMLID_143_" style="fill:#C4D600;" d="M269.966,30.299l7.776,1.846c-0.522,1.713-1.345,3.144-2.468,4.292
		s-2.518,2.015-4.182,2.6c-1.665,0.584-3.784,0.877-6.357,0.877c-3.121,0-5.671-0.356-7.649-1.068
		c-1.979-0.713-3.686-1.965-5.123-3.759c-1.437-1.794-2.155-4.09-2.155-6.888c0-3.731,1.263-6.598,3.79-8.601
		c2.527-2.004,6.102-3.006,10.724-3.006c3.618,0,6.461,0.575,8.531,1.723c2.069,1.149,3.607,2.913,4.613,5.292l-7.836,1.369
		c-0.274-0.687-0.562-1.189-0.862-1.508c-0.496-0.533-1.104-0.943-1.822-1.231c-0.719-0.287-1.522-0.431-2.41-0.431
		c-2.011,0-3.552,0.635-4.623,1.905c-0.81,0.943-1.214,2.423-1.214,4.441c0,2.5,0.483,4.213,1.45,5.14
		c0.966,0.927,2.325,1.39,4.074,1.39c1.698,0,2.981-0.374,3.849-1.123C268.944,32.811,269.574,31.725,269.966,30.299z"/>
	<path id="XMLID_141_" style="fill:#C4D600;" d="M281.351,16.976h23.781v4.815h-14.887v3.585h13.809v4.6h-13.809v4.446h15.318v5.107
		h-24.212V16.976z"/>
	<path id="XMLID_139_" style="fill:#C4D600;" d="M309.171,16.976h8.287l10.812,12.477V16.976h8.365v22.553h-8.365l-10.754-12.383
		v12.383h-8.346V16.976z"/>
	<path id="XMLID_137_" style="fill:#C4D600;" d="M340.244,32.068l8.443-0.415c0.182,1.077,0.555,1.898,1.117,2.461
		c0.914,0.913,2.22,1.369,3.918,1.369c1.267,0,2.242-0.233,2.928-0.7c0.685-0.467,1.028-1.008,1.028-1.623
		c0-0.584-0.326-1.107-0.979-1.569c-0.654-0.462-2.168-0.897-4.545-1.308c-3.892-0.687-6.667-1.6-8.325-2.738
		c-1.673-1.138-2.508-2.59-2.508-4.354c0-1.159,0.428-2.254,1.283-3.284c0.856-1.031,2.142-1.841,3.859-2.431
		c1.717-0.59,4.071-0.885,7.062-0.885c3.669,0,6.467,0.536,8.394,1.608c1.926,1.072,3.072,2.777,3.438,5.116l-8.365,0.385
		c-0.222-1.016-0.689-1.754-1.4-2.215c-0.713-0.462-1.695-0.692-2.948-0.692c-1.032,0-1.81,0.172-2.331,0.515
		c-0.522,0.344-0.784,0.761-0.784,1.254c0,0.359,0.216,0.682,0.646,0.969c0.418,0.298,1.411,0.575,2.978,0.831
		c3.878,0.657,6.656,1.32,8.335,1.992c1.678,0.672,2.899,1.506,3.663,2.5c0.765,0.995,1.146,2.108,1.146,3.339
		c0,1.446-0.509,2.779-1.527,4c-1.019,1.221-2.443,2.146-4.271,2.777c-1.828,0.631-4.133,0.946-6.915,0.946
		c-4.884,0-8.266-0.738-10.147-2.215C341.557,36.222,340.493,34.345,340.244,32.068z"/>
	<path id="XMLID_134_" style="fill:#C4D600;" d="M369.906,28.268c0-3.682,1.306-6.548,3.918-8.6
		c2.611-2.051,6.249-3.077,10.911-3.077c4.779,0,8.462,1.008,11.048,3.023c2.585,2.016,3.878,4.839,3.878,8.469
		c0,2.636-0.565,4.797-1.695,6.484c-1.13,1.687-2.761,3-4.897,3.938c-2.136,0.939-4.796,1.408-7.983,1.408
		c-3.239,0-5.919-0.405-8.041-1.215c-2.121-0.81-3.842-2.092-5.161-3.846C370.565,33.099,369.906,30.904,369.906,28.268z
		 M378.78,28.299c0,2.277,0.539,3.913,1.616,4.908c1.078,0.995,2.543,1.492,4.398,1.492c1.906,0,3.381-0.487,4.426-1.462
		c1.045-0.974,1.567-2.723,1.567-5.246c0-2.123-0.545-3.674-1.636-4.654c-1.091-0.979-2.569-1.469-4.436-1.469
		c-1.79,0-3.226,0.497-4.31,1.492C379.322,24.356,378.78,26.001,378.78,28.299z"/>
	<path id="XMLID_131_" style="fill:#C4D600;" d="M403.27,39.529V16.976h14.79c2.742,0,4.838,0.184,6.288,0.553
		c1.449,0.369,2.618,1.054,3.506,2.054c0.887,1,1.332,2.218,1.332,3.654c0,1.251-0.34,2.331-1.019,3.239
		c-0.68,0.908-1.614,1.643-2.804,2.207c-0.757,0.36-1.797,0.657-3.116,0.892c1.057,0.278,1.827,0.555,2.31,0.832
		c0.326,0.185,0.799,0.58,1.419,1.186c0.62,0.606,1.035,1.073,1.244,1.401l4.297,6.535H421.49l-4.744-6.892
		c-0.601-0.892-1.136-1.471-1.605-1.739c-0.641-0.348-1.365-0.523-2.175-0.523h-0.783v9.154H403.27z M412.183,26.114h3.741
		c0.405,0,1.188-0.103,2.351-0.308c0.588-0.092,1.068-0.328,1.44-0.708c0.371-0.379,0.558-0.815,0.558-1.307
		c0-0.728-0.294-1.287-0.882-1.677c-0.588-0.389-1.691-0.584-3.311-0.584h-3.897V26.114z"/>
	<path id="XMLID_129_" style="fill:#C4D600;" d="M435.126,16.976h23.781v4.815h-14.888v3.585h13.81v4.6h-13.81v4.446h15.319v5.107
		h-24.212V16.976z"/>
	<path id="XMLID_127_" style="fill:#C4D600;" d="M462.947,32.068l8.443-0.415c0.182,1.077,0.555,1.898,1.117,2.461
		c0.914,0.913,2.22,1.369,3.918,1.369c1.267,0,2.242-0.233,2.928-0.7c0.685-0.467,1.028-1.008,1.028-1.623
		c0-0.584-0.326-1.107-0.979-1.569c-0.654-0.462-2.168-0.897-4.545-1.308c-3.892-0.687-6.667-1.6-8.325-2.738
		c-1.673-1.138-2.508-2.59-2.508-4.354c0-1.159,0.428-2.254,1.283-3.284c0.856-1.031,2.142-1.841,3.859-2.431
		c1.717-0.59,4.071-0.885,7.062-0.885c3.669,0,6.467,0.536,8.394,1.608c1.926,1.072,3.072,2.777,3.438,5.116l-8.365,0.385
		c-0.222-1.016-0.689-1.754-1.4-2.215c-0.713-0.462-1.695-0.692-2.948-0.692c-1.032,0-1.81,0.172-2.331,0.515
		c-0.522,0.344-0.784,0.761-0.784,1.254c0,0.359,0.216,0.682,0.646,0.969c0.418,0.298,1.411,0.575,2.978,0.831
		c3.878,0.657,6.656,1.32,8.335,1.992c1.678,0.672,2.899,1.506,3.663,2.5c0.765,0.995,1.146,2.108,1.146,3.339
		c0,1.446-0.509,2.779-1.527,4c-1.019,1.221-2.443,2.146-4.271,2.777c-1.828,0.631-4.133,0.946-6.915,0.946
		c-4.884,0-8.266-0.738-10.147-2.215C464.26,36.222,463.195,34.345,462.947,32.068z"/>
	<path id="XMLID_124_" style="fill:#FFFFFF;" d="M86.667,66.305c-1.31-2.949-3.421-5.537-6.331-7.76
		c-2.912-2.223-6.596-3.929-11.054-5.118c-4.458-1.189-10.307-1.784-17.548-1.784H15v48.408h36.734
		c4.402,0,9.316-0.441,14.738-1.321c3.964-0.638,7.677-1.921,11.135-3.847c3.457-1.925,6.158-4.314,8.106-7.165
		c1.946-2.85,2.92-6.862,2.92-12.035C88.632,72.381,87.977,69.255,86.667,66.305z M63.605,86.153
		c-1.393,2.124-3.317,3.612-5.776,4.465c-2.459,0.853-6.597,1.277-12.414,1.277h-6.82v-32.51h6.943
		c7.209,0,12.373,1.164,15.487,3.492c3.112,2.328,4.668,6.641,4.668,12.948C65.693,80.586,64.997,84.029,63.605,86.153z"/>
	<path id="XMLID_122_" style="fill:#FFFFFF;" d="M154.779,51.644h16.794v28.84c0,2.861-0.674,5.561-2.02,8.101
		s-3.457,4.764-6.332,6.667c-2.876,1.903-5.892,3.238-9.05,4.008c-4.387,1.077-9.656,1.617-15.805,1.617
		c-3.557,0-7.438-0.166-11.644-0.495c-4.204-0.331-7.72-0.985-10.545-1.964c-2.825-0.978-5.409-2.369-7.754-4.173
		c-2.342-1.804-3.948-3.663-4.811-5.577c-1.397-3.079-2.095-5.808-2.095-8.185v-28.84h22.538v32.931c0,2.64,1.105,4.702,3.316,6.188
		c2.211,1.484,5.276,2.226,9.199,2.226c3.89,0,11.511-0.059,13.724-1.521c2.209-1.464,4.485-4.209,4.485-6.893V51.644z"/>
	<path id="XMLID_119_" style="fill:#FFFFFF;" d="M242.108,55.508c-4.194-2.575-10.501-3.864-18.924-3.864h-38.669v48.408h23.366
		V80.439h12.735c9.381,0,16.356-1.375,20.927-4.128c4.572-2.752,6.856-5.996,6.856-10.883
		C248.399,61.982,246.301,58.083,242.108,55.508z M223.524,71.169c-1.989,1.347-5.435,2.021-10.346,2.021h-6.241V58.662h7.252
		c4.761,0,8.004,0.712,9.729,2.132c1.723,1.423,2.586,3.156,2.586,5.198C226.504,68.096,225.511,69.822,223.524,71.169z"/>
	<path id="XMLID_117_" style="fill:#FFFFFF;" d="M261.411,51.644h23.263v40.398h34.507v8.01h-57.77V51.644z"/>
	<path id="XMLID_115_" style="fill:#FFFFFF;" d="M332.201,51.644h57.556v7.466h-36.57v12.445h28.337v7.991h-28.337v12.113h39.634
		v8.393h-60.62V51.644z"/>
	<path id="XMLID_113_" style="fill:#C4D600;" d="M484.918,100.074h-23.356L444.139,84.15l-18.364,15.924h-20.379l27.996-22.128
		h27.664L484.918,100.074z"/>
	<path id="XMLID_111_" style="fill:#FFFFFF;" d="M409.457,51.716h23.356l17.423,15.924l18.364-15.924h20.379l-27.996,22.128h-27.664
		L409.457,51.716z"/>
	<g id="XMLID_26_">
		<path id="XMLID_59_" style="fill:#FFFFFF;" d="M184.958,148.516c-0.146-3.351-0.073-6.724,0.219-10.113
			c0.291-3.389,0.692-6.685,1.202-9.893c0.219-1.238,0.419-2.332,0.601-3.28c0.181-0.947,0.711-1.75,1.586-2.406
			c0.145-0.145,0.382-0.29,0.711-0.437c0.327-0.145,0.527-0.255,0.601-0.328h0.218c0.801,0,1.493,0.382,2.078,1.148
			c0.582,0.765,0.874,1.623,0.874,2.569c0,1.021-0.311,2.279-0.93,3.772c-0.62,1.495-1.038,2.826-1.257,3.99
			c-0.366,2.405-0.62,4.81-0.766,7.215c-0.146,2.405-0.218,4.81-0.218,7.215c0.072,1.24,0.126,2.606,0.164,4.099
			c0.035,1.495,0.2,2.862,0.492,4.1c0,0.147,0.109,0.492,0.328,1.038s0.364,0.894,0.436,1.039v1.093
			c0,0.074,0.055,0.311,0.165,0.711c0.109,0.401,0.219,0.857,0.328,1.367c0.109,0.511,0.218,1.021,0.327,1.531
			c0.109,0.511,0.2,0.912,0.274,1.202c0.145,0.655,0.399,1.459,0.765,2.405c0.363,0.948,0.801,1.858,1.312,2.733
			c0.509,0.874,1.074,1.623,1.694,2.241c0.619,0.62,1.258,0.928,1.913,0.928c0.875,0,1.64-0.345,2.296-1.038
			c0.657-0.692,1.239-1.402,1.75-2.132c0.874-1.312,1.657-2.897,2.351-4.756c0.692-1.859,1.274-3.807,1.748-5.849
			c0.474-2.04,0.838-4.081,1.094-6.122c0.254-2.04,0.418-3.898,0.492-5.575c0-0.219,0.016-0.765,0.054-1.64
			c0.036-0.875,0.091-1.821,0.165-2.843c0.072-1.019,0.126-1.985,0.164-2.897c0.035-0.911,0.054-1.476,0.054-1.695
			c0-0.072-0.019-0.399-0.054-0.984c-0.038-0.583-0.055-1.293-0.055-2.132c0-0.837-0.018-1.657-0.054-2.46
			c-0.038-0.801-0.054-1.457-0.054-1.968c0-0.291-0.019-0.801-0.055-1.531c-0.038-0.728-0.054-1.493-0.054-2.296
			c0-0.801-0.019-1.548-0.055-2.241c-0.038-0.692-0.054-1.184-0.054-1.476c-0.147-0.801-0.293-1.73-0.438-2.787
			c-0.147-1.056-0.475-1.985-0.984-2.788c-0.147-0.145-0.457-0.473-0.93-0.984c-0.475-0.509-0.748-0.837-0.82-0.984v-0.984
			c-0.073-0.875,0.036-1.457,0.328-1.75c0.291-0.29,0.801-0.437,1.531-0.437c0.727,0,1.328,0.347,1.804,1.038
			c0.473,0.694,0.874,1.514,1.202,2.46c0.328,0.948,0.582,1.913,0.765,2.897c0.181,0.984,0.346,1.768,0.492,2.351
			c0.947,3.863,1.493,7.69,1.64,11.479c0.146,3.645,0.091,7.253-0.164,10.823c-0.257,3.572-0.566,7.106-0.93,10.605
			c0,0.292-0.054,0.748-0.164,1.366c-0.109,0.62-0.202,1.24-0.274,1.859c-0.073,0.62-0.146,1.202-0.219,1.749
			s-0.108,0.893-0.108,1.038c-0.074,0.147-0.184,0.511-0.328,1.094c-0.147,0.584-0.292,1.201-0.438,1.858
			c-0.147,0.655-0.292,1.275-0.436,1.858c-0.147,0.585-0.257,0.948-0.328,1.094c-0.511,2.259-1.35,4.228-2.514,5.903
			c0,0.073-0.074,0.273-0.219,0.601c-0.147,0.328-0.292,0.566-0.438,0.711c0,0.073-0.038,0.182-0.109,0.328l-0.219,0.436
			c-0.218,0.366-0.655,0.948-1.312,1.75c-0.655,0.802-1.057,1.277-1.202,1.421c-0.728,0.655-1.475,1.093-2.24,1.312
			c-0.766,0.219-1.586,0.328-2.46,0.328c-0.366,0-0.893,0-1.585,0c-0.694,0-1.221-0.181-1.585-0.547
			c-1.75-1.384-3.263-3.26-4.537-5.63c-1.277-2.367-2.316-4.937-3.117-7.708c-0.802-2.768-1.404-5.575-1.804-8.417
			C185.268,153.326,185.03,150.776,184.958,148.516z"/>
		<path id="XMLID_56_" style="fill:#FFFFFF;" d="M230.158,168.106c0-1.602,0.126-3.187,0.382-4.756
			c0.254-1.566,0.382-3.187,0.382-4.864v-0.438c0-0.145-0.038-0.419-0.109-0.82c-0.073-0.4-0.147-0.673-0.219-0.82
			c-1.021,0.73-1.896,1.477-2.624,2.241c-0.73,0.766-1.44,1.475-2.132,2.132c-0.693,0.655-1.494,1.185-2.405,1.585
			c-0.912,0.401-2.059,0.601-3.444,0.601h-0.436c-0.074,0-0.147-0.035-0.219-0.109c-1.678-0.582-2.843-1.585-3.498-3.006
			c-0.657-1.421-0.985-2.968-0.985-4.646c0-0.219,0.018-0.508,0.055-0.874c0.035-0.363,0.054-0.582,0.054-0.657
			c0-0.145,0.072-0.527,0.219-1.147c0.146-0.619,0.291-1.039,0.438-1.257c1.238-3.062,2.878-5.229,4.919-6.505
			c2.04-1.275,4.518-1.913,7.434-1.913c1.894,0,3.663,0.638,5.303,1.913c1.639,1.276,2.459,3.08,2.459,5.411
			c0,3.062-0.255,6.105-0.765,9.129c-0.511,3.025-0.766,6.104-0.766,9.237c0,1.166,0.165,2.186,0.493,3.062
			c0.327,0.874,0.673,1.858,1.038,2.951v0.438c0,0.438-0.182,0.673-0.546,0.711c-0.366,0.035-0.694,0.054-0.985,0.054
			c-0.874,0-1.585-0.255-2.131-0.765c-0.547-0.511-0.967-1.148-1.258-1.913c-0.292-0.765-0.474-1.604-0.546-2.514
			C230.193,169.655,230.158,168.835,230.158,168.106z M219.553,154.987c0,0.73,0.235,1.367,0.711,1.913
			c0.473,0.547,1.074,0.82,1.804,0.82c0.727,0,1.328-0.181,1.804-0.546c0.473-0.365,1.001-0.838,1.585-1.421
			c0.291-0.291,0.673-0.692,1.148-1.202c0.473-0.509,0.93-1.001,1.366-1.477c0.438-0.473,0.947-1.074,1.531-1.803v-2.406
			c0-0.072-0.092-0.164-0.273-0.273c-0.182-0.109-0.347-0.164-0.492-0.164h-1.968c-0.802,0-1.623,0.147-2.459,0.437
			c-0.839,0.292-1.624,0.73-2.351,1.312c-0.73,0.584-1.312,1.276-1.75,2.077C219.772,153.057,219.553,153.968,219.553,154.987z"/>
		<path id="XMLID_54_" style="fill:#FFFFFF;" d="M239.387,153.675c0-0.072,0.018-0.289,0.055-0.655
			c0.035-0.364,0.091-0.747,0.164-1.148c0.072-0.4,0.127-0.782,0.165-1.148c0.035-0.364,0.054-0.582,0.054-0.656v-5.466
			c0.072-0.728,0.345-1.531,0.82-2.405c0.473-0.875,1.001-1.312,1.585-1.312c0.875,0,1.531,0.565,1.968,1.694
			c0.436,1.131,0.655,2.279,0.655,3.444c0,0.147-0.019,0.492-0.054,1.038c-0.038,0.547-0.074,1.131-0.109,1.749
			c-0.038,0.62-0.074,1.203-0.109,1.75c-0.038,0.547-0.055,0.893-0.055,1.038v1.093c0,0.366,0.018,0.694,0.055,0.984
			c0.035,0.293,0.126,0.585,0.273,0.875c0.947-1.75,1.658-3.717,2.132-5.904c0.473-2.187,1.148-4.226,2.023-6.122
			c0.072-0.145,0.364-0.601,0.874-1.367c0.509-0.765,0.911-1.293,1.202-1.585c0.438-0.582,0.766-0.93,0.985-1.039
			c0.218-0.109,0.618-0.164,1.202-0.164c0.145,0,0.363,0.018,0.655,0.055c0.291,0.037,0.473,0.092,0.547,0.164
			c0.072,0.074,0.328,0.402,0.765,0.984c0.438,0.584,0.692,1.057,0.766,1.421c0.436,0.874,0.801,1.931,1.093,3.17
			c0.291,1.24,0.564,2.514,0.82,3.826c0.254,1.312,0.564,2.533,0.928,3.662c0.365,1.131,0.838,1.987,1.421,2.569
			c0-0.145,0.072-0.419,0.219-0.82c0.146-0.399,0.291-0.673,0.438-0.819c0.145-0.365,0.364-0.966,0.655-1.805
			c0.291-0.837,0.582-1.73,0.875-2.678c0.289-0.947,0.582-1.84,0.874-2.679c0.291-0.837,0.509-1.438,0.655-1.804
			c0.072-0.29,0.309-0.765,0.711-1.421c0.4-0.656,0.673-1.056,0.82-1.202h0.438c0.145,0,0.235-0.018,0.273-0.055
			c0.036-0.036,0.091-0.055,0.165-0.055c1.165,0,2.167,0.547,3.006,1.64c0.836,1.093,1.657,2.26,2.459,3.499
			c0.072,0.147,0.291,0.565,0.657,1.257c0.363,0.694,0.618,1.112,0.765,1.257c0.291,0.656,0.619,1.568,0.984,2.733
			c0.365,1.167,0.692,2.423,0.985,3.772c0.291,1.35,0.527,2.662,0.711,3.936c0.181,1.275,0.273,2.351,0.273,3.225
			c0,0.584-0.038,1.131-0.109,1.64c-0.073,0.511-0.366,0.765-0.874,0.765h-0.438c-0.802-1.093-1.513-2.258-2.132-3.498
			c-0.62-1.239-1.202-2.514-1.748-3.826c-0.547-1.312-1.131-2.586-1.75-3.826c-0.62-1.239-1.367-2.368-2.241-3.39h-0.109
			c-0.219,0-0.436,0.219-0.655,0.656c-0.219,0.438-0.438,0.948-0.657,1.531c-0.219,0.584-0.42,1.131-0.601,1.64
			c-0.182,0.511-0.311,0.875-0.382,1.093c0,0.147-0.092,0.438-0.273,0.875c-0.184,0.436-0.366,0.912-0.547,1.421
			c-0.182,0.511-0.365,1.002-0.546,1.475c-0.184,0.475-0.274,0.748-0.274,0.82c-0.436,1.385-0.874,2.643-1.312,3.771
			c-0.436,1.131-1.275,1.696-2.514,1.696c-0.947,0-1.694-0.4-2.241-1.202c-0.546-0.801-0.984-1.767-1.312-2.898
			c-0.327-1.128-0.601-2.312-0.819-3.552c-0.219-1.239-0.438-2.297-0.657-3.171c-0.073-0.291-0.273-0.965-0.601-2.023
			c-0.328-1.055-0.601-1.766-0.82-2.132c-0.073-0.072-0.109-0.145-0.109-0.218l-0.219-0.219h-0.108c-0.293,0-0.601,0.365-0.93,1.093
			c-0.328,0.73-0.639,1.585-0.93,2.569c-0.292,0.984-0.566,1.932-0.82,2.843c-0.257,0.912-0.42,1.55-0.492,1.913
			c-0.147,0.292-0.328,0.693-0.547,1.202c-0.218,0.511-0.436,1.039-0.655,1.585c-0.219,0.547-0.42,1.039-0.601,1.477
			c-0.182,0.436-0.311,0.693-0.382,0.765c-0.366,0.874-0.73,1.694-1.093,2.46c-0.366,0.765-0.948,1.147-1.75,1.147
			c-1.093,0-2.06-0.382-2.897-1.147c-0.839-0.766-1.405-1.913-1.696-3.444V153.675z"/>
		<path id="XMLID_51_" style="fill:#FFFFFF;" d="M279.434,160.125c0-1.601,0.255-3.023,0.766-4.263l0.765-1.312
			c2.187-2.332,4.336-4.117,6.45-5.357c2.113-1.238,4.664-2.149,7.653-2.733h0.766c0.801,0,1.675,0.147,2.624,0.437
			c0.582,0.147,1.001,0.475,1.257,0.984c0.255,0.511,0.564,1.021,0.93,1.531c0.509,0.655,0.892,1.148,1.148,1.475
			c0.254,0.328,0.382,0.93,0.382,1.804c0,1.968-0.492,3.772-1.475,5.412c-0.985,1.639-2.206,3.044-3.663,4.209
			c-1.459,1.166-3.08,2.077-4.865,2.733c-1.786,0.655-3.482,0.984-5.083,0.984c-3.062,0-5.614-1.531-7.654-4.592V160.125z
			 M285.01,158.705c0,0.802,0.419,1.275,1.258,1.42c0.836,0.147,1.512,0.219,2.023,0.219c2.113,0,4.061-0.636,5.849-1.913
			c1.785-1.274,3.078-2.968,3.88-5.083v-0.219c0-0.438-0.366-0.711-1.093-0.82c-0.73-0.109-1.24-0.164-1.531-0.164
			c-0.584,0-1.459,0.202-2.624,0.602c-1.166,0.401-2.333,0.912-3.498,1.529c-1.167,0.62-2.17,1.312-3.006,2.078
			C285.429,157.119,285.01,157.904,285.01,158.705z"/>
		<path id="XMLID_49_" style="fill:#FFFFFF;" d="M310.854,169.197l0.985-2.405v-1.202l-4.702-5.904
			c-0.584-0.801-1.002-1.621-1.257-2.46c-0.257-0.836-0.384-1.804-0.384-2.897c0-1.312,0.274-2.55,0.82-3.717
			c0.547-1.165,1.239-2.277,2.078-3.334c0.836-1.055,1.73-2.004,2.678-2.842c0.947-0.837,1.821-1.548,2.624-2.132
			c0.146-0.145,0.419-0.328,0.82-0.547c0.4-0.219,0.673-0.291,0.82-0.219c0.072,0,0.309,0.164,0.711,0.492
			c0.4,0.328,0.673,0.566,0.82,0.711c0.145,0.147,0.399,0.438,0.765,0.875c0.364,0.437,0.547,0.839,0.547,1.202v0.219
			c-0.074,0.437-0.147,1.002-0.219,1.694c-0.074,0.694-0.147,1.076-0.219,1.148c0,0.074-0.164,0.311-0.492,0.711
			c-0.328,0.402-0.566,0.675-0.711,0.82c-0.073,0.074-0.219,0.164-0.438,0.274c-0.219,0.109-0.365,0.164-0.436,0.164
			c-0.147,0-0.566,0.055-1.258,0.164c-0.693,0.109-1.112,0.202-1.257,0.274c-0.657,0.147-1.258,0.639-1.805,1.475
			c-0.546,0.839-0.819,1.659-0.819,2.46c0,0.802,0.254,1.549,0.765,2.241c0.509,0.693,1.093,1.331,1.75,1.913
			c0.655,0.585,1.312,1.148,1.967,1.694c0.657,0.547,1.165,1.077,1.531,1.586c0.291,0.436,0.419,0.893,0.382,1.366
			c-0.038,0.475-0.054,0.967-0.054,1.475c0,1.678-0.401,3.153-1.202,4.428c-0.804,1.277-1.932,1.913-3.39,1.913
			c-0.365,0-0.693-0.091-0.984-0.273c-0.292-0.181-0.438-0.563-0.438-1.147V169.197z"/>
		<path id="XMLID_47_" style="fill:#C4D600;" d="M340.631,159.004c0-0.291,0.018-0.747,0.055-1.367c0.035-0.618,0.054-1,0.054-1.147
			c0.072-1.02,0.309-2.241,0.711-3.663c0.4-1.421,0.782-2.641,1.148-3.662c0-0.072,0.126-0.236,0.382-0.492
			c0.254-0.255,0.419-0.419,0.492-0.492c0.291-0.509,0.657-1.165,1.093-1.968c0.438-0.801,0.93-1.567,1.477-2.296
			c0.546-0.728,1.128-1.348,1.748-1.858c0.619-0.509,1.258-0.765,1.913-0.765c1.02,0,1.805,0.365,2.351,1.094
			c0.547,0.729,0.82,1.713,0.82,2.951c0,1.24-0.347,2.26-1.039,3.061c-0.693,0.803-1.475,1.585-2.35,2.351
			c-0.875,0.765-1.659,1.64-2.351,2.624c-0.693,0.984-1.039,2.241-1.039,3.771c0,0.948,0.291,1.605,0.875,1.968
			c0.582,0.365,1.165,0.546,1.748,0.546c1.239,0,2.496-0.418,3.772-1.257c1.274-0.838,2.423-1.621,3.444-2.351
			c0.508-0.291,1.147-0.782,1.913-1.475c0.765-0.692,1.438-1.039,2.023-1.039c0.582,0,0.874,0.366,0.874,1.093
			c0,0.804-0.401,1.604-1.202,2.405l-2.843,2.952c-0.073,0.147-0.366,0.42-0.874,0.82c-0.511,0.401-1.077,0.874-1.694,1.421
			c-0.62,0.546-1.24,1.075-1.859,1.585c-0.62,0.511-1.112,0.874-1.475,1.093c-0.438,0.438-0.948,0.73-1.531,0.875
			c-0.585,0.146-1.167,0.218-1.75,0.218c-1.896,0-3.517-0.546-4.865-1.639C341.305,163.268,340.631,161.482,340.631,159.004z"/>
		<path id="XMLID_44_" style="fill:#C4D600;" d="M362.028,160.125c0-1.601,0.255-3.023,0.766-4.263l0.765-1.312
			c2.187-2.332,4.336-4.117,6.45-5.357c2.113-1.238,4.664-2.149,7.653-2.733h0.766c0.801,0,1.675,0.147,2.624,0.437
			c0.582,0.147,1.001,0.475,1.257,0.984c0.255,0.511,0.564,1.021,0.93,1.531c0.509,0.655,0.892,1.148,1.148,1.475
			c0.254,0.328,0.382,0.93,0.382,1.804c0,1.968-0.492,3.772-1.475,5.412c-0.985,1.639-2.206,3.044-3.663,4.209
			c-1.459,1.166-3.08,2.077-4.865,2.733c-1.786,0.655-3.482,0.984-5.083,0.984c-3.062,0-5.614-1.531-7.654-4.592V160.125z
			 M367.604,158.705c0,0.802,0.419,1.275,1.258,1.42c0.836,0.147,1.512,0.219,2.023,0.219c2.113,0,4.061-0.636,5.849-1.913
			c1.785-1.274,3.078-2.968,3.88-5.083v-0.219c0-0.438-0.366-0.711-1.093-0.82c-0.73-0.109-1.24-0.164-1.531-0.164
			c-0.584,0-1.459,0.202-2.624,0.602c-1.166,0.401-2.333,0.912-3.498,1.529c-1.167,0.62-2.17,1.312-3.006,2.078
			C368.023,157.119,367.604,157.904,367.604,158.705z"/>
		<path id="XMLID_42_" style="fill:#C4D600;" d="M387.033,160.344c0-0.219,0.018-0.582,0.055-1.093
			c0.035-0.509,0.072-1.074,0.109-1.694c0.035-0.619,0.072-1.184,0.109-1.694c0.035-0.509,0.054-0.875,0.054-1.093
			c0.072-0.509,0.291-0.892,0.657-1.148c0.363-0.254,0.765-0.438,1.202-0.547c0.436-0.108,0.874-0.164,1.312-0.164
			c0.436,0,0.836-0.035,1.202-0.109c0.436-0.145,0.801-0.418,1.093-0.819c0.291-0.4,0.619-0.747,0.984-1.039
			c1.093-0.875,2.296-1.421,3.607-1.64c1.312-0.219,2.587-0.328,3.826-0.328c2.843,0,4.921,0.858,6.232,2.569
			c1.312,1.714,1.967,3.954,1.967,6.724c0,0.366-0.019,0.82-0.054,1.366c-0.038,0.547-0.128,1.093-0.274,1.64
			s-0.346,1.002-0.601,1.367c-0.255,0.365-0.639,0.546-1.147,0.546c-0.804,0-1.277-0.454-1.421-1.366
			c-0.147-0.911-0.328-1.931-0.547-3.062c-0.219-1.13-0.62-2.148-1.202-3.062c-0.584-0.909-1.748-1.366-3.498-1.366
			c-2.186,0-3.755,0.62-4.7,1.859c-0.948,1.239-1.64,2.587-2.078,4.044c-0.438,1.459-0.802,2.807-1.093,4.045
			c-0.292,1.24-0.802,1.859-1.531,1.859c-1.459,0-2.533-0.454-3.225-1.367c-0.693-0.909-1.039-2.094-1.039-3.552V160.344z"/>
		<path id="XMLID_39_" style="fill:#C4D600;" d="M424.252,158.813c0-0.145,0.018-0.527,0.055-1.147
			c0.035-0.619,0.054-1.274,0.054-1.968c0-0.692,0.018-1.312,0.055-1.858c0.035-0.547,0.054-0.892,0.054-1.039
			c0-0.437,0.018-1.165,0.055-2.186c0.035-1.02,0.054-2.132,0.054-3.334s-0.019-2.313-0.054-3.334
			c-0.038-1.02-0.055-1.749-0.055-2.187c0.438-1.749,1.274-2.624,2.514-2.624c1.458,0,2.187,1.131,2.187,3.389
			c0,1.823-0.074,3.645-0.219,5.466c-0.147,1.823-0.219,3.681-0.219,5.576c0,0.365,0,0.819,0,1.366s0.018,1.093,0.054,1.64
			c0.036,0.546,0.055,1.038,0.055,1.475c0,0.438,0,0.693,0,0.765c0,0.147,0.016,0.566,0.054,1.258
			c0.036,0.693,0.091,1.112,0.165,1.258c0.072,0.365,0.219,0.62,0.436,0.765c0.219,0.147,0.4,0.292,0.547,0.438
			c0.145,0.146,0.291,0.327,0.438,0.546c0.145,0.219,0.218,0.547,0.218,0.984c0,0.948-0.365,1.805-1.093,2.57
			c-0.73,0.765-1.385,1.148-1.967,1.148c-0.585,0-1.093-0.346-1.531-1.039c-0.438-0.692-0.784-1.512-1.039-2.46
			c-0.255-0.946-0.455-1.929-0.601-2.951C424.325,160.309,424.252,159.47,424.252,158.813z M426.768,129.734
			c0-1.238,0.254-2.149,0.765-2.733c0.509-0.582,1.093-0.874,1.75-0.874c0.289,0,0.711,0.128,1.257,0.382
			c0.547,0.256,1.074,0.565,1.585,0.93c0.509,0.365,0.947,0.784,1.312,1.257c0.365,0.475,0.547,0.967,0.547,1.475
			c0,0.656-0.201,1.148-0.601,1.476c-0.401,0.328-0.858,0.565-1.367,0.711c-0.511,0.147-1.021,0.237-1.53,0.273
			c-0.511,0.038-0.875,0.055-1.094,0.055c-0.292,0-0.638,0.019-1.038,0.055c-0.401,0.038-0.675-0.164-0.82-0.601
			c-0.073-0.072-0.201-0.382-0.382-0.929c-0.184-0.547-0.311-0.892-0.382-1.039V129.734z"/>
		<path id="XMLID_36_" style="fill:#FFFFFF;" d="M462.172,160.125c0-1.601,0.255-3.023,0.766-4.263l0.765-1.312
			c2.187-2.332,4.336-4.117,6.45-5.357c2.113-1.238,4.664-2.149,7.653-2.733h0.766c0.801,0,1.675,0.147,2.624,0.437
			c0.582,0.147,1.001,0.475,1.257,0.984c0.255,0.511,0.564,1.021,0.93,1.531c0.509,0.655,0.892,1.148,1.148,1.475
			c0.254,0.328,0.382,0.93,0.382,1.804c0,1.968-0.492,3.772-1.475,5.412c-0.985,1.639-2.206,3.044-3.663,4.209
			c-1.459,1.166-3.08,2.077-4.865,2.733c-1.786,0.655-3.482,0.984-5.083,0.984c-3.062,0-5.614-1.531-7.654-4.592V160.125z
			 M467.748,158.705c0,0.802,0.419,1.275,1.258,1.42c0.836,0.147,1.512,0.219,2.023,0.219c2.113,0,4.061-0.636,5.849-1.913
			c1.785-1.274,3.078-2.968,3.88-5.083v-0.219c0-0.438-0.366-0.711-1.093-0.82c-0.73-0.109-1.24-0.164-1.531-0.164
			c-0.584,0-1.459,0.202-2.624,0.602c-1.166,0.401-2.333,0.912-3.498,1.529c-1.167,0.62-2.17,1.312-3.006,2.078
			C468.167,157.119,467.748,157.904,467.748,158.705z"/>
		<g id="XMLID_32_">
			<path id="XMLID_33_" style="fill:#FFFFFF;" d="M452.245,145.149c0.147,0,0.365-0.074,0.655-0.219l0.438-0.218
				c0.073,0,0.164-0.019,0.273-0.055c0.109-0.038,0.201-0.055,0.273-0.055c1.094,0,1.968,0.345,2.624,1.038
				c0.657,0.692,1.167,1.531,1.531,2.514c0.366,0.984,0.62,2.04,0.766,3.171c0.147,1.129,0.219,2.131,0.219,3.006
				c0.146,2.551,0.127,5.029-0.055,7.435c-0.181,2.405-0.382,4.811-0.601,7.216c-0.363,3.643-0.765,7.122-1.202,10.44
				c-0.438,3.316-1.093,6.687-1.968,10.113c-0.436,1.675-0.819,3.225-1.147,4.646c-0.328,1.421-1.039,2.75-2.132,3.99
				c-0.072,0.073-0.164,0.146-0.273,0.219c-0.109,0.072-0.236,0.181-0.384,0.328c-0.145,0.145-0.289,0.255-0.436,0.328
				c-0.072,0-0.291-0.111-0.657-0.328c-0.364-0.219-0.655-0.401-0.874-0.547c-0.364-0.292-0.601-0.655-0.711-1.093
				c-0.109-0.436-0.164-0.874-0.164-1.312c-0.072-1.021,0.218-2.096,0.874-3.225c0.655-1.131,1.131-2.132,1.421-3.006
				c0.802-2.771,1.385-5.504,1.75-8.2c0.365-2.698,0.765-5.503,1.202-8.419c0.365-2.478,0.693-4.992,0.984-7.543
				c0.292-2.552,0.366-5.103,0.219-7.653c-0.072-1.021-0.146-1.951-0.219-2.789c-0.072-0.838-0.254-1.767-0.547-2.787
				c-0.072-0.292-0.327-0.437-0.765-0.437h-0.328l-3.17,3.936l-6.123,11.26c-0.874,1.457-1.93,2.186-3.17,2.186
				c-0.947,0-1.75-0.311-2.406-0.928c-0.655-0.621-1.202-1.405-1.639-2.351c-0.438-0.948-0.766-1.968-0.985-3.062
				c-0.218-1.093-0.327-2.114-0.327-3.06c-0.146-3.134,0.365-6.142,1.53-9.02c1.167-2.88,2.88-5.157,5.139-6.833
				c0.292-0.147,0.747-0.456,1.366-0.93c0.62-0.475,1.148-0.748,1.585-0.819h4.811c0.511,0.072,0.912,0.273,1.202,0.601
				c0.292,0.328,0.511,0.673,0.655,1.038c0.147,0.364,0.274,0.692,0.382,0.984C451.971,145.002,452.099,145.149,452.245,145.149z
				 M449.84,146.024c-0.073,0-0.255-0.019-0.547-0.055c-0.291-0.038-0.509-0.055-0.657-0.055c-0.8,0-1.366,0.164-1.694,0.492
				c-0.328,0.328-0.82,0.782-1.475,1.367c-1.894,1.676-3.316,3.334-4.264,4.974c-0.946,1.64-1.347,3.953-1.202,6.943
				c0,0.145,0,0.473,0,0.984c0,0.508,0.038,0.836,0.109,0.984c0.073,0,0.147,0.072,0.219,0.219c0.073,0.146,0.147,0.219,0.219,0.219
				l0.108,0.108c0.074,0,0.109-0.018,0.109-0.054c0-0.038,0.038-0.054,0.109-0.054h0.109c0.804-0.802,1.405-1.696,1.804-2.679
				c0.402-0.984,0.894-1.986,1.477-3.006c0.73-1.24,1.459-2.46,2.186-3.663c0.73-1.202,1.494-2.424,2.296-3.662
				c0.147-0.147,0.328-0.437,0.547-0.875c0.219-0.437,0.401-0.729,0.547-0.874c0-0.147,0.054-0.328,0.164-0.547
				c0.109-0.219,0.164-0.366,0.164-0.438L449.84,146.024z"/>
		</g>
		<path id="XMLID_30_" style="fill:#C4D600;" d="M412.137,153.396c-0.218-5.029-0.164-9.985,0.165-14.868
			c0.327-4.882,0.636-9.802,0.93-14.759c0-0.364,0.016-1.001,0.054-1.913c0.036-0.911,0.072-1.876,0.109-2.897
			c0.035-1.019,0.054-1.968,0.054-2.842c0-0.875,0.038-0.003,0.038-0.369c0-0.874,0-1.73,0-2.569c0-0.836,0.091-1.602,0.274-2.296
			c0.181-0.692,0.492-1.257,0.928-1.694c0.438-0.438,1.166-0.656,2.187-0.656c1.165,0,2.039,0.475,2.624,1.421
			c0.582,0.948,0.946,1.968,1.093,3.062v1.202c0,0.074-0.055,0.328-0.165,0.765c-0.108,0.437-0.863,2.254-0.164,0.765l-1.021,4.196
			c0,0.073,0,0.273,0,0.601c0,0.328-0.019,0.675-0.055,1.038c-0.036,0.365-0.073,0.711-0.108,1.039
			c-0.038,0.328-0.055,0.529-0.055,0.601c0.072,0.292,0,0.929-0.219,1.913c-0.219,0.984-0.365,1.658-0.436,2.022l-0.985,4.264
			c-0.511,3.936-0.765,7.836-0.765,11.698c0,3.864,0.109,7.8,0.328,11.806c0,0.438,0.035,1.022,0.109,1.75
			c0.072,0.73,0.126,1.44,0.164,2.131c0.035,0.694,0.072,1.295,0.109,1.804c0.035,0.511,0.054,0.802,0.054,0.874
			c0,0.147,0.109,0.784,0.328,1.913c0.219,1.131,0.454,2.443,0.711,3.936c0.254,1.494-0.106-0.015,0.15,1.441
			c0.255,1.459,0.799,3.569,1.016,4.444c0.146,1.166,0.438,2.259,0.875,3.279c0.436,1.021,0.946,2.005,1.531,2.952
			c0,0.365-0.238,0.546-0.711,0.546c-0.475,0-0.785,0-0.93,0c-1.021,0-1.859-0.309-2.514-0.93c-0.657-0.618-1.202-1.384-1.64-2.296
			c-0.438-0.911-0.802-1.894-1.093-2.951c-0.292-1.057-0.511-2.023-0.657-2.898c-0.146-0.508-0.327-1.421-0.546-2.733
			c-0.219-1.312-0.128-0.673-0.347-2.167c-0.219-1.493-0.401-2.897-0.546-4.209c-0.147-1.312-0.257-2.223-0.328-2.733
			c0-0.072-0.019-0.345-0.055-0.82c-0.036-0.473-0.092-1.001-0.164-1.585c-0.073-0.582-0.147-1.184-0.219-1.804
			C412.174,154.253,412.137,153.761,412.137,153.396z"/>
		<g id="XMLID_27_">
			<path id="XMLID_28_" style="fill:#C4D600;" d="M305.551,139.278c-0.933-0.062-27.789-0.931-28.665-0.993
				c-0.876-0.062-1.671-0.109-2.381-0.143c-0.713-0.032-1.124-0.051-1.231-0.052c-0.768-0.059-2.136-0.153-4.107-0.28
				c-1.972-0.125-4.081-0.281-6.321-0.464c-2.246-0.183-4.352-0.365-6.322-0.548c-1.971-0.18-3.34-0.328-4.104-0.446
				c-1.313-0.12-10.197-1.42-11.781-1.655c-1.587-0.233-3.062-0.523-4.427-0.865c-1.368-0.343-2.513-0.769-3.436-1.274
				c-0.927-0.508-1.384-1.148-1.376-1.926c0.001-0.11,0.005-0.346,0.01-0.707c0.004-0.361,0.278-0.539,0.828-0.535
				c1.419,0.455,2.892,0.854,4.423,1.198c1.53,0.345,3.17,0.58,4.923,0.704c1.313,0.176,10.494,1.492,12.685,1.703
				c2.188,0.212,4.404,0.422,6.648,0.633c2.243,0.212,4.212,0.406,5.91,0.585c1.695,0.179,2.652,0.269,2.873,0.271
				c0.108,0.001,0.546,0.019,1.315,0.052c0.765,0.033,1.669,0.069,2.711,0.104c1.039,0.036,2.107,0.086,3.203,0.149
				c1.094,0.064,27.926,0.904,28.583,0.909c6.022,0.212,11.938,0.339,17.747,0.382c5.806,0.044,33.952-0.606,39.873-0.951
				l6.419-0.701c0.548-0.051,6.262,0.269,7.744,0.113c1.48-0.156,2.439-0.203,2.877-0.145c0.108,0,0.412-0.011,0.905-0.035
				c0.493-0.025,1.012-0.048,1.562-0.071c0.548-0.024,1.069-0.035,1.562-0.03c0.493,0.003,0.793,0.005,0.904,0.006l27.447-1.457
				c0.108,0.001,0.493-0.037,1.153-0.116c0.657-0.078,1.041-0.117,1.152-0.117l1.808,0.014c1.642,0.124,3.171,0.413,4.591,0.867
				c1.417,0.456,2.124,1.127,2.113,2.014c-0.01,0.778-0.345,1.33-1.006,1.657c-0.661,0.327-1.514,0.559-2.555,0.688
				c-1.045,0.132-2.196,0.192-3.455,0.183c-1.261-0.009-2.547-0.018-3.863-0.029c-0.549-0.003-1.479-0.011-2.793-0.021
				s-26.332,0.341-27.865,0.356c-1.536,0.018-2.988,0.033-4.357,0.052c-1.371,0.017-2.331,0.024-2.877,0.019
				c-7.453,0.166-37.133,0.846-44.475,1.04c-7.345,0.194-14.794,0.18-22.353-0.042C307.219,139.374,306.48,139.341,305.551,139.278z
				"/>
		</g>
	</g>
</g>
</svg>
